<svg width="18" height="18" viewBox="0 0 18 18" fill="none" xmlns="http://www.w3.org/2000/svg">
<g id="Group 57">
<g id="Vector">
<path d="M1.53049 3.13086C1.23589 3.13086 0.99707 3.36968 0.99707 3.66428C0.99707 3.95888 1.23589 4.19771 1.53049 4.19771V3.13086ZM16.4663 4.19771C16.7609 4.19771 16.9998 3.95888 16.9998 3.66428C16.9998 3.36968 16.7609 3.13086 16.4663 3.13086V4.19771ZM1.53049 4.19771H16.4663V3.13086H1.53049V4.19771Z" fill="#FF0000"/>
<path d="M1.53049 3.13086C1.23589 3.13086 0.99707 3.36968 0.99707 3.66428C0.99707 3.95888 1.23589 4.19771 1.53049 4.19771M1.53049 3.13086V4.19771M1.53049 3.13086H16.4663M1.53049 4.19771H16.4663M16.4663 4.19771C16.7609 4.19771 16.9998 3.95888 16.9998 3.66428C16.9998 3.36968 16.7609 3.13086 16.4663 3.13086M16.4663 4.19771V3.13086" stroke="#FF0000" stroke-width="0.355604"/>
</g>
<g id="Vector_2">
<path d="M5.79785 3.66711C5.79785 3.96171 6.03668 4.20054 6.33127 4.20054C6.62587 4.20054 6.8647 3.96171 6.8647 3.66711H5.79785ZM11.1321 3.66711C11.1321 3.96171 11.3709 4.20054 11.6655 4.20054C11.9601 4.20054 12.1989 3.96171 12.1989 3.66711H11.1321ZM10.5987 1H7.39812V2.06685H10.5987V1ZM7.39812 1C6.9737 1 6.56667 1.1686 6.26656 1.46871L7.02093 2.22308C7.12097 2.12305 7.25665 2.06685 7.39812 2.06685V1ZM6.26656 1.46871C5.96645 1.76882 5.79785 2.17585 5.79785 2.60027H6.8647C6.8647 2.4588 6.9209 2.32312 7.02093 2.22308L6.26656 1.46871ZM5.79785 2.60027V3.66711H6.8647V2.60027H5.79785ZM12.1989 3.66711V2.60027H11.1321V3.66711H12.1989ZM12.1989 2.60027C12.1989 2.17585 12.0303 1.76882 11.7302 1.46871L10.9758 2.22308C11.0759 2.32312 11.1321 2.4588 11.1321 2.60027H12.1989ZM11.7302 1.46871C11.4301 1.1686 11.023 1 10.5987 1V2.06685C10.7401 2.06685 10.8758 2.12305 10.9758 2.22308L11.7302 1.46871Z" fill="#FF0000"/>
<path d="M7.39812 1.53342V1M7.39812 1H10.5987M7.39812 1V2.06685M7.39812 1C6.9737 1 6.56667 1.1686 6.26656 1.46871M6.33127 2.60027H5.79785M5.79785 2.60027C5.79785 2.17585 5.96645 1.76882 6.26656 1.46871M5.79785 2.60027H6.8647M5.79785 2.60027V3.66711M5.79785 3.66711C5.79785 3.96171 6.03668 4.20054 6.33127 4.20054C6.62587 4.20054 6.8647 3.96171 6.8647 3.66711M5.79785 3.66711H6.8647M6.8647 3.66711V2.60027M11.1321 3.66711C11.1321 3.96171 11.3709 4.20054 11.6655 4.20054C11.9601 4.20054 12.1989 3.96171 12.1989 3.66711M11.1321 3.66711H12.1989M11.1321 3.66711V2.60027M12.1989 3.66711V2.60027M11.6655 2.60027H12.1989M12.1989 2.60027H11.1321M12.1989 2.60027C12.1989 2.17585 12.0303 1.76882 11.7302 1.46871M10.5987 1V2.06685M10.5987 1C11.023 1 11.4301 1.1686 11.7302 1.46871M7.39812 2.06685H10.5987M7.39812 2.06685C7.25665 2.06685 7.12097 2.12305 7.02093 2.22308M10.5987 2.06685C10.7401 2.06685 10.8758 2.12305 10.9758 2.22308M6.26656 1.46871L7.02093 2.22308M7.02093 2.22308C6.9209 2.32312 6.8647 2.4588 6.8647 2.60027M11.1321 2.60027C11.1321 2.4588 11.0759 2.32312 10.9758 2.22308M11.7302 1.46871L10.9758 2.22308" stroke="#FF0000" stroke-width="0.355604"/>
</g>
<g id="Vector_3">
<path d="M6.86523 12.7378C6.86523 13.0324 7.10406 13.2712 7.39866 13.2712C7.69325 13.2712 7.93208 13.0324 7.93208 12.7378H6.86523ZM7.93208 7.40354C7.93208 7.10894 7.69325 6.87012 7.39866 6.87012C7.10406 6.87012 6.86523 7.10894 6.86523 7.40354H7.93208ZM7.93208 12.7378V7.40354H6.86523V12.7378H7.93208Z" fill="#FF0000"/>
<path d="M6.86523 12.7378C6.86523 13.0324 7.10406 13.2712 7.39866 13.2712C7.69325 13.2712 7.93208 13.0324 7.93208 12.7378M6.86523 12.7378H7.93208M6.86523 12.7378V7.40354M7.93208 12.7378V7.40354M7.93208 7.40354C7.93208 7.10894 7.69325 6.87012 7.39866 6.87012C7.10406 6.87012 6.86523 7.10894 6.86523 7.40354M7.93208 7.40354H6.86523" stroke="#FF0000" stroke-width="0.355604"/>
</g>
<g id="Vector_4">
<path d="M10.0645 12.7378C10.0645 13.0324 10.3033 13.2712 10.5979 13.2712C10.8925 13.2712 11.1313 13.0324 11.1313 12.7378H10.0645ZM11.1313 7.40354C11.1313 7.10894 10.8925 6.87012 10.5979 6.87012C10.3033 6.87012 10.0645 7.10894 10.0645 7.40354H11.1313ZM11.1313 12.7378V7.40354H10.0645V12.7378H11.1313Z" fill="#FF0000"/>
<path d="M10.0645 12.7378C10.0645 13.0324 10.3033 13.2712 10.5979 13.2712C10.8925 13.2712 11.1313 13.0324 11.1313 12.7378M10.0645 12.7378H11.1313M10.0645 12.7378V7.40354M11.1313 12.7378V7.40354M11.1313 7.40354C11.1313 7.10894 10.8925 6.87012 10.5979 6.87012C10.3033 6.87012 10.0645 7.10894 10.0645 7.40354M11.1313 7.40354H10.0645" stroke="#FF0000" stroke-width="0.355604"/>
</g>
<g id="Vector_5">
<path d="M3.66269 3.62C3.63821 3.32641 3.38038 3.10826 3.08679 3.13273C2.7932 3.15721 2.57506 3.41505 2.59953 3.70863L3.66269 3.62ZM15.398 3.7086C15.4225 3.41502 15.2043 3.15719 14.9107 3.13273C14.6171 3.10827 14.3593 3.32644 14.3348 3.62003L15.398 3.7086ZM13.3498 15.4435C13.3387 15.5769 13.2779 15.7015 13.1794 15.7921L13.9019 16.5771C14.1974 16.3052 14.3798 15.932 14.4129 15.5319L13.3498 15.4435ZM13.1794 15.7921C13.0809 15.8828 12.952 15.933 12.8181 15.933L12.818 16.9999C13.2196 16.9999 13.6065 16.849 13.9019 16.5771L13.1794 15.7921ZM12.8181 15.933H5.18017V16.9999H12.818L12.8181 15.933ZM5.18017 15.933C5.04632 15.933 4.91731 15.8828 4.81882 15.7921L4.09634 16.5771C4.39179 16.849 4.77862 16.9999 5.18017 16.9999V15.933ZM4.81882 15.7921C4.72035 15.7015 4.65954 15.5771 4.64847 15.4437L3.58528 15.5319C3.61847 15.932 3.80089 16.3052 4.09634 16.5771L4.81882 15.7921ZM4.64847 15.4437L3.66269 3.62L2.59953 3.70863L3.58528 15.5319L4.64847 15.4437ZM14.3348 3.62003L13.3498 15.4435L14.4129 15.5319L15.398 3.7086L14.3348 3.62003Z" fill="#FF0000"/>
<path d="M13.8814 15.4878L13.3498 15.4435M13.3498 15.4435C13.3387 15.5769 13.2779 15.7015 13.1794 15.7921M13.3498 15.4435L14.4129 15.5319M13.3498 15.4435L14.3348 3.62003M12.8181 16.4665L12.8181 15.933M12.8181 15.933C12.952 15.933 13.0809 15.8828 13.1794 15.7921M12.8181 15.933L12.818 16.9999M12.8181 15.933H5.18017M5.18017 16.4665V15.933M5.18017 15.933V16.9999M5.18017 15.933C5.04632 15.933 4.91731 15.8828 4.81882 15.7921M4.11688 15.4878L4.64847 15.4437M4.64847 15.4437C4.65954 15.5771 4.72035 15.7015 4.81882 15.7921M4.64847 15.4437L3.58528 15.5319M4.64847 15.4437L3.66269 3.62M3.66269 3.62C3.63821 3.32641 3.38038 3.10826 3.08679 3.13273C2.7932 3.15721 2.57506 3.41505 2.59953 3.70863M3.66269 3.62L2.59953 3.70863M2.59953 3.70863L3.58528 15.5319M15.398 3.7086C15.4225 3.41502 15.2043 3.15719 14.9107 3.13273C14.6171 3.10827 14.3593 3.32644 14.3348 3.62003M15.398 3.7086L14.3348 3.62003M15.398 3.7086L14.4129 15.5319M13.1794 15.7921L13.9019 16.5771M13.9019 16.5771C14.1974 16.3052 14.3798 15.932 14.4129 15.5319M13.9019 16.5771C13.6065 16.849 13.2196 16.9999 12.818 16.9999M12.818 16.9999H5.18017M5.18017 16.9999C4.77862 16.9999 4.39179 16.849 4.09634 16.5771M4.81882 15.7921L4.09634 16.5771M4.09634 16.5771C3.80089 16.3052 3.61847 15.932 3.58528 15.5319" stroke="#FF0000" stroke-width="0.355604"/>
</g>
</g>
</svg>
