<svg width="22" height="20" viewBox="0 0 22 20" fill="none" xmlns="http://www.w3.org/2000/svg">
<g id="filter-svgrepo-com 1" clip-path="url(#clip0_58670_1185)">
<path id="Vector" d="M17.7012 1.38428H4.29953C2.94576 1.38428 2.26886 1.38428 1.8483 1.77886C1.42773 2.17345 1.42773 2.80852 1.42773 4.07865V4.73899C1.42773 5.73248 1.42773 6.22922 1.67624 6.64102C1.92475 7.05282 2.37875 7.30839 3.28676 7.81954L6.07529 9.38931C6.68452 9.7322 6.98913 9.90374 7.20723 10.0931C7.66143 10.4874 7.94104 10.9507 8.06775 11.519C8.12859 11.7919 8.12859 12.1112 8.12859 12.7498V15.3052C8.12859 16.1759 8.12859 16.6112 8.36974 16.9506C8.61091 17.29 9.03922 17.4574 9.89589 17.7924C11.6942 18.4954 12.5934 18.8469 13.2328 18.4469C13.8722 18.047 13.8722 17.1331 13.8722 15.3052V12.7498C13.8722 12.1112 13.8722 11.7919 13.9331 11.519C14.0597 10.9507 14.3393 10.4874 14.7935 10.0931C15.0116 9.90374 15.3162 9.7322 15.9255 9.38931L18.714 7.81954C19.622 7.30839 20.076 7.05282 20.3245 6.64102C20.573 6.22922 20.573 5.73248 20.573 4.73899V4.07865C20.573 2.80852 20.573 2.17345 20.1525 1.77886C19.7319 1.38428 19.055 1.38428 17.7012 1.38428Z" stroke="black" stroke-width="1.4359"/>
</g>
<defs>
<clipPath id="clip0_58670_1185">
<rect width="20.6195" height="18.6667" fill="white" transform="translate(0.69043 0.666504)"/>
</clipPath>
</defs>
</svg>
