<svg width="83" height="40" viewBox="0 0 83 40" fill="none" xmlns="http://www.w3.org/2000/svg">
<g id="OBJECTS">
<g id="&#60;Group&#62;">
<path id="&#60;Path&#62;" d="M41.484 0C30.8363 0 21.8968 1.13879 18.6228 2.64769C15.3203 4.12811 11.6477 11.4164 11.6477 11.4164C11.6477 11.4164 9.39857 10.9893 8.57295 10.2491C7.7758 9.48043 9.85409 7.45908 4.84341 7.45908C-0.138795 7.45908 -0.395023 10.1352 4.84341 11.758C10.0818 13.3523 10.0818 14.1495 10.0818 14.1495C4.30249 14.1495 2.11032 17.1103 0.999995 22.121C-0.0818555 27.0463 -1.10677 34.3915 2.62277 37.8363C1.48398 32.9395 3.76156 30.121 9.3701 32.5979C2.96441 27.6441 1.88256 20.8968 5.38434 20.0142C8.91459 19.1317 21.242 26.6192 21.242 26.6192C17.3132 22.4342 10.3665 17.8505 10.3665 16.7402C10.3665 15.6299 15.3203 5.58007 19.6477 3.78648C23.9751 2.02135 41.484 1.67972 41.484 1.67972V0Z" fill="#9B72D2"/>
<path id="&#60;Path&#62;_2" d="M41.4844 0C52.1321 0 61.0716 1.13879 64.3456 2.64769C67.6481 4.12811 71.3207 11.4164 71.3207 11.4164C71.3207 11.4164 73.5698 10.9893 74.3954 10.2491C75.1926 9.48043 73.1143 7.45908 78.125 7.45908C83.1072 7.45908 83.3634 10.1352 78.125 11.758C72.8865 13.3523 72.8865 14.1495 72.8865 14.1495C78.6659 14.1495 80.858 17.1103 81.9684 22.121C83.0502 27.0463 84.0751 34.3915 80.3456 37.8363C81.4844 32.9395 79.2068 30.121 73.5983 32.5979C80.0039 27.6441 81.0858 20.8968 77.584 20.0142C74.0538 19.1317 61.7264 26.6192 61.7264 26.6192C65.6552 22.4342 72.6018 17.8505 72.6018 16.7402C72.6018 15.6299 67.6481 5.58007 63.3207 3.78648C58.9933 2.02135 41.4844 1.67972 41.4844 1.67972V0Z" fill="#9B72D2"/>
<path id="&#60;Path&#62;_3" d="M69.0427 9.25244C71.3772 13.1528 41.484 13.0389 41.484 13.0389C41.484 13.0389 11.5908 13.1528 13.9253 9.25244L12.5303 11.9286C13.8114 13.0959 30.8363 13.5798 41.484 13.5798C52.1317 13.5798 69.1566 13.0959 70.4377 11.9286L69.0427 9.25244Z" fill="#9B72D2"/>
<g id="&#60;Group&#62;_2">
<path id="&#60;Path&#62;_4" d="M58.6795 27.0176C54.2952 28.2133 41.4838 28.071 41.4838 28.071C41.4838 28.071 28.6724 28.2133 24.2881 27.0176C27.3059 28.4695 33.4553 29.3806 41.4838 29.3806C49.5123 29.3806 55.6617 28.4695 58.6795 27.0176Z" fill="#9B72D2"/>
<path id="&#60;Path&#62;_5" d="M59.4769 31.7153C61.6406 35.2741 59.9609 37.7224 54.1816 38.121C48.7154 38.4911 42.7937 38.5196 42.1958 38.5196C41.4271 38.5196 34.2527 38.4911 28.7866 38.121C23.0072 37.7224 21.3275 35.2741 23.4912 31.7153C18.7937 34.2776 14.3524 34.1637 11.5908 32.8826C12.3026 34.363 16.2883 37.21 20.0463 38.5765C23.6905 39.8862 32.1175 40 42.1389 40C42.1389 40 42.1483 40 42.1673 40C42.1863 40 42.2148 40 42.2527 40C52.2456 40 59.2777 39.8862 62.9218 38.5765C66.6798 37.21 70.6656 34.363 71.3773 32.8826C68.6157 34.1637 64.1744 34.2776 59.4769 31.7153Z" fill="#9B72D2"/>
</g>
<path id="&#60;Path&#62;_6" d="M43.5056 25.7083C43.5056 26.0784 42.5946 26.3916 41.4842 26.3916C40.3739 26.3916 39.4629 26.0784 39.4629 25.7083C39.4629 25.3097 40.3739 24.9966 41.4842 24.9966C42.5946 24.9966 43.5056 25.3097 43.5056 25.7083Z" fill="#9B72D2"/>
</g>
</g>
</svg>
