<svg width="16" height="16" viewBox="0 0 16 16" fill="none" xmlns="http://www.w3.org/2000/svg">
<path id="Vector" fill-rule="evenodd" clip-rule="evenodd" d="M11.3598 10.4161C12.1812 9.38916 12.6724 8.08656 12.6724 6.66923C12.6724 3.35401 9.98492 0.666504 6.66972 0.666504C3.3545 0.666504 0.666992 3.35401 0.666992 6.66923C0.666992 9.98443 3.3545 12.672 6.66972 12.672C8.08705 12.672 9.38965 12.1808 10.4166 11.3593L14.195 15.1378C14.4555 15.3983 14.8778 15.3983 15.1383 15.1378C15.3988 14.8774 15.3988 14.455 15.1383 14.1946L11.3598 10.4161ZM6.66972 11.3447C4.08752 11.3447 1.99424 9.25143 1.99424 6.66923C1.99424 4.08703 4.08752 1.99375 6.66972 1.99375C9.25192 1.99375 11.3452 4.08703 11.3452 6.66923C11.3452 9.25143 9.25192 11.3447 6.66972 11.3447Z" fill="black"/>
</svg>
